#!OML:ASF \\sashay\E\Suitcase\Project 1\Capture day 1\Session 1\Male1.ASF
:FULLY-SPECIFIED
:DEGREES
641
root 0.960861 17.0437 15.7888 1.63665 -7.20226 0.773114
lowerback 2.59277 1.51461 -2.21347
upperback -0.746231 1.95952 0.718496
thorax -2.31918 1.01448 1.88742
lowerneck -16.3585 -0.49371 -3.07821
upperneck 18.6022 -0.109483 1.01497
head 8.49825 -0.165293 0.837453
rclavicle -2.12451e-015 1.15295e-014
rhumerus -33.98 -21.5089 -67.8921
rradius 23.3228
rwrist 1.13179
rhand -11.6484 20.2974
rfingers 7.12502
rthumb 14.3958 -9.1834
lclavicle -2.12451e-015 1.15295e-014
lhumerus -37.6259 11.291 79.7094
lradius 25.2551
lwrist -13.5284
lhand 0.491296 43.223
lfingers 7.12502
lthumb 26.0609 71.4553
rfemur -5.23451 -0.390106 19.0724
rtibia 58.7594
rfoot 5.93319 -1.06287
rtoes 6.05423
lfemur -16.6764 -0.412991 -26.4993
ltibia 20.9313
lfoot -8.04969 -9.3959
ltoes 13.2608
642
root 0.967856 17.0499 15.9018 1.26121 -7.15119 1.2228
lowerback 3.01597 1.44899 -2.64802
upperback -0.650123 1.84364 0.602166
thorax -2.46269 0.962528 2.00768
lowerneck -16.4757 -0.518434 -3.38916
upperneck 18.425 -0.137585 1.37956
head 8.46003 -0.160414 1.00761
rclavicle 2.83268e-015 7.95139e-016
rhumerus -33.2592 -20.4855 -68.5456
rradius 23.6428
rwrist -0.132618
rhand -11.5431 20.5052
rfingers 7.12502
rthumb 14.4972 -8.96835
lclavicle 2.83268e-015 7.95139e-016
lhumerus -37.2452 10.6423 79.9682
lradius 25.1283
lwrist -13.1289
lhand 0.215376 43.4577
lfingers 7.12502
lthumb 25.7966 71.7287
rfemur -6.54528 -0.766533 18.3478
rtibia 60.9558
rfoot 4.80216 -2.08647
rtoes 7.72278
lfemur -15.6577 -0.281618 -27.0818
ltibia 20.5327
lfoot -7.64854 -9.61785
ltoes 14.7416
643
root 0.974695 17.0644 16.0268 1.05255 -7.22186 1.66876
lowerback 3.14221 1.34718 -3.15599
upperback -0.725121 1.68117 0.530491
thorax -2.61515 0.891572 2.22368
lowerneck -16.1051 -0.341203 -3.3373
upperneck 18.2787 0.0241639 1.63993
head 8.33913 -0.0529644 1.10431
rclavicle -1.65116e-014 -5.1684e-015
rhumerus -33.1322 -19.9757 -68.7902
rradius 24.4628
rwrist -0.502257
rhand -11.4283 20.8754
rfingers 7.12502
rthumb 14.6079 -8.5901
lclavicle -1.65116e-014 -5.1684e-015
lhumerus -37.1757 10.6313 79.8762
lradius 24.8868
lwrist -13.2328
lhand 0.970875 43.0564
lfingers 7.12502
lthumb 26.52 71.2203
rfemur -7.71699 -1.12233 17.6133
rtibia 62.8305
rfoot 3.53375 -2.59558
rtoes 8.10707
lfemur -14.8574 -0.338714 -27.6347
ltibia 20.244
lfoot -8.0222 -10.342
ltoes 17.5994
644
root 0.971785 17.0544 16.1409 0.886713 -7.06141 1.4002
lowerback 3.30514 1.24581 -2.88634
upperback -0.775945 1.554 0.626815
thorax -2.74631 0.827247 2.17482
lowerneck -15.8717 -0.244136 -3.10647
upperneck 18.2235 0.162234 1.30621
head 8.27601 -0.00640861 0.969408
rclavicle 1.66482e-015 4.37326e-015
rhumerus -32.9238 -19.134 -69.1535
rradius 25.1336
rwrist -1.34589
rhand -11.4131 20.7786
rfingers 7.12502
rthumb 14.6226 -8.68592
lclavicle 1.66482e-015 4.37326e-015
lhumerus -37.0937 9.94776 80.095
lradius 24.8834
lwrist -12.8979
lhand 0.740162 42.9495
lfingers 7.12502
lthumb 26.2991 71.1465
rfemur -8.92034 -1.53554 17.8689
rtibia 64.5704
rfoot 2.25451 -4.04432
rtoes 9.60837
lfemur -13.9455 -0.119713 -27.458
ltibia 19.837
lfoot -8.27066 -9.41885
ltoes 15.9866
645
root 0.98103 17.0552 16.2649 0.663262 -7.15981 1.30054
lowerback 3.30776 1.20062 -2.79975
upperback -0.578384 1.50241 0.754735
thorax -2.5422 0.795896 2.26339
lowerneck -16.0248 -0.206456 -3.20728
upperneck 18.146 0.234137 1.35668
head 8.27543 0.026725 1.01128
rclavicle 1.37037e-014 -7.95139e-016
rhumerus -32.2877 -18.9713 -69.2853
rradius 25.6199
rwrist -1.81827
rhand -11.1222 21.7356
rfingers 7.12502
rthumb 14.9028 -7.70838
lclavicle 1.37037e-014 -7.95139e-016
lhumerus -36.4948 10.5691 80.0179
lradius 24.4321
lwrist -14.1056
lhand 0.622207 42.8469
lfingers 7.12502
lthumb 26.1862 71.0606
rfemur -10.0924 -1.79841 17.721
rtibia 66.0001
rfoot 1.33255 -4.76585
rtoes 8.74169
lfemur -13.1786 -0.248003 -27.4603
ltibia 19.7093
lfoot -8.39525 -9.98469
ltoes 18.0288
646
root 0.986132 17.0638 16.3841 0.416611 -7.08468 1.88064
lowerback 3.48159 1.1126 -3.41544
upperback -0.663788 1.34879 0.633383
thorax -2.73089 0.731747 2.48896
lowerneck -16.0688 -0.200253 -2.91256
upperneck 18.3155 0.240435 1.02142
head 8.34136 0.0139313 0.851953
rclavicle 2.628e-014 8.94531e-015
rhumerus -32.0001 -17.8338 -69.7415
rradius 26.1386
rwrist -2.44078
rhand -11.0366 21.0478
rfingers 7.12502
rthumb 14.9852 -8.39005
lclavicle 2.628e-014 8.94531e-015
lhumerus -36.6564 10.2757 80.0369
lradius 24.6828
lwrist -14.0381
lhand 0.838236 42.2159
lfingers 7.12502
lthumb 26.393 70.3989
rfemur -11.1642 -2.15768 16.8687
rtibia 67.3617
rfoot 0.287859 -5.43293
rtoes 11.6701
lfemur -12.5789 -0.462006 -28.1356
ltibia 19.7541
lfoot -7.8223 -10.5519
ltoes 21.3739
647
root 0.989403 17.0658 16.4997 0.49866 -7.01649 1.65245
lowerback 3.34988 0.98806 -3.25343
upperback -0.746965 1.19709 0.773168
thorax -2.73157 0.655962 2.55274
lowerneck -15.5241 -0.261413 -3.3657
upperneck 17.9774 0.181264 1.34555
head 8.13102 -0.0102586 1.02518
rclavicle -1.52443e-014 -3.18055e-015
rhumerus -31.7611 -17.3513 -69.932
rradius 26.7176
rwrist -3.03685
rhand -11.0121 22.1261
rfingers 7.12502
rthumb 15.0089 -7.30999
lclavicle -1.52443e-014 -3.18055e-015
lhumerus -36.4335 10.27 80.0587
lradius 24.4617
lwrist -14.4199
lhand 0.308261 42.0854
lfingers 7.12502
lthumb 25.8856 70.3434
rfemur -12.5012 -2.47505 17.0611
rtibia 68.441
rfoot -0.305422 -6.26149
rtoes 10.8397
lfemur -12.1277 -0.647082 -27.9914
ltibia 19.622
lfoot -8.34056 -10.5979
ltoes 22.4607
648
root 0.989368 17.054 16.6116 0.276431 -6.94122 1.94346
lowerback 3.48568 0.910853 -3.56326
upperback -0.736685 1.07407 0.71114
thorax -2.79394 0.600052 2.66845
lowerneck -15.3599 -0.1076 -3.18471
upperneck 17.9773 0.340627 1.35585
head 8.09749 0.078426 1.01639
rclavicle 9.27765e-015 4.77083e-015
rhumerus -31.5954 -17.0783 -70.1357
rradius 27.6781
rwrist -3.29204
rhand -10.6202 21.8656
rfingers 7.12502
rthumb 15.3864 -7.54186
lclavicle 9.27765e-015 4.77083e-015
lhumerus -36.0361 10.443 79.9108
lradius 24.0861
lwrist -15.0058
lhand 0.101672 42.3048
lfingers 7.12502
lthumb 25.6878 70.5915
rfemur -13.7513 -2.60133 16.6441
rtibia 69.4805
rfoot -0.757401 -6.93033
rtoes 11.1197
lfemur -11.232 -0.649279 -28.4392
ltibia 19.4366
lfoot -7.82423 -10.5199
ltoes 21.7796
649
root 0.996403 17.0608 16.7242 -0.0406263 -6.80243 1.85318
lowerback 3.72783 0.85477 -3.39666
upperback -0.671093 1.00117 0.790892
thorax -2.85546 0.56175 2.65906
lowerneck -15.4205 -0.160724 -3.27386
upperneck 18.0471 0.299591 1.31552
head 8.13287 0.0481791 1.01362
rclavicle -8.68285e-015 -1.59028e-015
rhumerus -31.0513 -16.685 -70.3027
rradius 27.8899
rwrist -3.84313
rhand -10.7569 21.8372
rfingers 7.12502
rthumb 15.2547 -7.58035
lclavicle -8.68285e-015 -1.59028e-015
lhumerus -35.7487 10.1653 80.1079
lradius 24.1044
lwrist -14.8963
lhand -0.0310392 42.766
lfingers 7.12502
lthumb 25.5606 71.0711
rfemur -14.5549 -3.01285 16.5384
rtibia 70.1656
rfoot -0.88066 -6.81611
rtoes 13.1899
lfemur -10.4275 -0.651193 -28.4479
ltibia 19.481
lfoot -8.19157 -10.5099
ltoes 23.0382
650
root 0.993211 17.0617 16.8449 -0.105802 -6.77726 2.02196
lowerback 3.60182 0.788986 -3.65078
upperback -0.650357 0.906687 0.799002
thorax -2.7609 0.516834 2.81798
lowerneck -15.5656 -0.0967311 -3.06215
upperneck 18.2065 0.396722 1.04873
head 8.21114 0.0802532 0.902009
rclavicle -6.8472e-015 -3.57812e-015
rhumerus -30.7788 -16.3023 -70.5461
rradius 28.6268
rwrist -4.12862
rhand -10.7983 21.7588
rfingers 7.12502
rthumb 15.2147 -7.66173
lclavicle -6.8472e-015 -3.57812e-015
lhumerus -35.3509 10.0805 80.1411
lradius 23.9051
lwrist -14.9365
lhand 0.0501877 42.7996
lfingers 7.12502
lthumb 25.6384 71.0934
rfemur -15.7574 -3.09842 16.3402
rtibia 70.7117
rfoot -1.35905 -7.37139
rtoes 11.668
lfemur -9.90044 -0.609101 -28.7059
ltibia 19.3389
lfoot -7.96104 -10.2166
ltoes 24.1233
